<?xml version="1.0" encoding="UTF-8"?>
<svg width="20px" height="20px" viewBox="0 0 20 20" version="1.1" xmlns="http://www.w3.org/2000/svg" xmlns:xlink="http://www.w3.org/1999/xlink">
    <!-- Generator: sketchtool 46.2 (44496) - http://www.bohemiancoding.com/sketch -->
    <title>08F734CE-8278-48FD-9A3B-4AFC6048B57A</title>
    <desc>Created with sketchtool.</desc>
    <defs></defs>
    <g id="Page-1" stroke="none" stroke-width="1" fill="none" fill-rule="evenodd">
        <g id="2-услуги-1440" transform="translate(-775.000000, -318.000000)" fill-rule="nonzero" fill="#E6E6E6">
            <g id="items" transform="translate(150.000000, 312.000000)">
                <path d="M639.591438,10.8650685 C638.4462,10.8650685 637.517801,9.88764558 637.517801,8.68193329 C637.517801,7.47622099 638.4462,6.49879806 639.591438,6.49879806 C640.736677,6.49879806 641.665076,7.47622099 641.665076,8.68193329 C641.665076,9.88764558 640.736677,10.8650685 639.591438,10.8650685 Z M644.875717,17.4806466 C645.129536,17.9392942 644.982135,18.5278 644.546404,18.7950681 C644.401845,18.8837124 644.243684,18.9258932 644.087622,18.9258932 C643.773355,18.9258932 643.467486,18.7549134 643.297865,18.4484115 L641.929917,15.9763651 L641.929917,24.4847397 C641.929917,25.0572664 641.479358,25.5189994 640.931217,25.4984616 C640.409145,25.4788447 640.002894,25.0103886 640.002894,24.4603798 L640.002894,19.3371565 C640.002894,19.1070038 639.81862,18.9222093 639.596949,18.9373134 C639.394611,18.951082 639.241655,19.1374422 639.241655,19.3508791 L639.254864,24.4847397 C639.254864,25.0449714 638.823463,25.4991062 638.29133,25.4991062 C638.289056,25.4991062 638.286913,25.4987378 638.284682,25.4987378 C638.282451,25.4987839 638.280308,25.4991062 638.278077,25.4991062 C637.745945,25.4991062 637.314631,25.0449714 637.314631,24.4847397 L637.327797,15.9763191 L635.95985,18.4483655 C635.790229,18.7548674 635.484359,18.9258472 635.170092,18.9258472 C635.014031,18.9258472 634.855913,18.8836663 634.711311,18.7950221 C634.488284,18.6582106 634.160501,18.0552455 634.113263,17.9699628 L632.724977,15.4611693 L632.724977,16.5152301 L633.354998,21.2945137 C633.408054,21.6970737 633.11102,22.0562096 632.724977,22.0562096 L632.724977,25.0059219 C632.724977,25.5784486 632.274549,26.0401355 631.726408,26.0196437 C631.204248,26.0001189 630.797997,25.5316629 630.797997,24.981608 L630.797997,22.0562556 L630.036758,22.0562556 L630.036758,25.0059679 C630.036758,25.5784946 629.586199,26.0402276 629.038058,26.0196898 C628.515985,26.0001189 628.109735,25.5316629 628.109735,24.9816541 L628.109735,22.0563017 C627.723691,22.0563017 627.426658,21.6971658 627.479713,21.2946058 L628.109691,16.5154143 L628.109691,15.4263563 L626.702072,17.9700549 C626.532451,18.2765108 626.226582,18.4475366 625.912315,18.4475366 C625.756253,18.4475366 625.598135,18.4054018 625.453533,18.3167115 C625.017846,18.0494433 624.8704,17.4609376 625.124263,17.0022439 L628.315659,11.2352561 C628.485587,10.9281556 628.792287,10.7579586 629.107254,10.7586033 C629.113027,10.7582349 629.118757,10.7576823 629.124618,10.7576823 L631.690848,10.7576823 C631.696709,10.7576823 631.702439,10.7582349 631.708212,10.7586033 C632.023179,10.7580047 632.329923,10.9282016 632.499807,11.2352561 L635.168999,16.0587007 L637.573481,11.7136127 C637.72635,11.437365 638.036768,11.2421174 638.270686,11.2421174 C638.326759,11.2421174 640.931042,11.2421174 640.98716,11.2421174 C641.221078,11.2421174 641.531496,11.437365 641.684365,11.7136127 L644.875717,17.4806466 Z M627.16689,10.3433338 C626.895619,10.3687989 626.655183,10.1609338 626.626097,9.87579867 C626.555633,9.18349858 626.567924,8.1447261 626.939752,7.73226555 C627.488636,7.12345223 628.167733,7.11732771 628.606307,7.20122892 C628.951279,6.49990323 629.646385,6.02034934 630.448258,6.02034934 C631.250131,6.02034934 631.945192,6.49994928 632.29012,7.20122892 C632.728738,7.11728166 633.407704,7.12345223 633.956676,7.73226555 C634.328592,8.1447261 634.340882,9.18345253 634.270243,9.87579867 C634.2412,10.1609338 634.000722,10.3687989 633.729407,10.3433338 L633.216169,10.2951666 C632.921016,10.2674911 632.71308,9.97701429 632.770728,9.67097289 C632.858863,9.20329963 632.889349,8.55428557 632.520495,8.15287677 C632.520933,8.16977674 632.521764,8.18653856 632.521764,8.20348458 C632.521764,9.40913849 631.593353,10.3865738 630.448214,10.3865738 C629.303031,10.3865738 628.37462,9.40913849 628.37462,8.20348458 C628.37462,8.18653856 628.375451,8.16977674 628.375845,8.15287677 C628.007035,8.55423952 628.037477,9.20329963 628.125568,9.67097289 C628.183348,9.97701429 627.975324,10.2674911 627.680171,10.2951666 L627.16689,10.3433338 Z" id="Combined-Shape"></path>
            </g>
        </g>
    </g>
</svg>