<?xml version="1.0" encoding="UTF-8"?>
<svg width="22px" height="22px" viewBox="0 0 22 22" version="1.1" xmlns="http://www.w3.org/2000/svg" xmlns:xlink="http://www.w3.org/1999/xlink">
    <!-- Generator: sketchtool 46.2 (44496) - http://www.bohemiancoding.com/sketch -->
    <title>DF0ACFC4-42AA-4653-BB4F-C1D90665B837</title>
    <desc>Created with sketchtool.</desc>
    <defs></defs>
    <g id="Page-1" stroke="none" stroke-width="1" fill="none" fill-rule="evenodd">
        <g id="2-услуги-1440" transform="translate(-774.000000, -442.000000)" stroke="#E6E6E6" fill-rule="nonzero" fill="#E6E6E6">
            <g id="items" transform="translate(150.000000, 312.000000)">
                <g id="Group-3" transform="translate(625.000000, 131.000000)">
                    <path d="M14.7621589,5.59010183 C14.7586965,5.56839104 14.756945,5.54753564 14.7508758,5.52668024 C14.5284318,4.43613035 11.4105499,4.34574338 10.4277393,4.34574338 C9.28154786,4.34574338 8.21446029,4.45348269 7.42370672,4.64989817 C7.19083503,4.70725051 7.04830957,4.94272912 7.10651731,5.17564155 C7.16386965,5.40851324 7.40370672,5.54843177 7.63226069,5.49193483 C8.34651731,5.31466395 9.36492872,5.21384929 10.4276986,5.21384929 C12.1439104,5.21384929 13.2831365,5.45714868 13.7367413,5.64835031 C13.2831365,5.8395112 12.1439104,6.08285132 10.4276986,6.08285132 C9.91238289,6.08285132 9.41360489,6.0602444 8.94696538,6.01682281 C8.70537678,5.99160896 8.49682281,6.16977597 8.47425662,6.4087169 C8.45164969,6.64769857 8.62720978,6.85971487 8.86615071,6.88142566 C9.35971487,6.92835031 9.88545825,6.95181263 10.4276986,6.95181263 C11.0811813,6.95181263 12.6792261,6.91185336 13.7445621,6.56513238 L13.0189817,10.9195519 C12.9798778,11.1559267 13.1397556,11.3801222 13.3761303,11.4192261 C13.4004481,11.4235845 13.4239104,11.4252953 13.4482688,11.4252953 C13.6568228,11.4252953 13.8410591,11.2749491 13.8766599,11.0620774 L14.7664766,5.7204888 C14.7682281,5.7100611 14.7647251,5.6996334 14.7656212,5.6892057 C14.7664766,5.67531568 14.7725866,5.66313646 14.7725866,5.64924644 C14.7725866,5.62835031 14.7638697,5.61010183 14.7621589,5.59010183 Z" id="Shape"></path>
                    <path d="M9.99319756,0 C4.48305499,0 0,4.48305499 0,9.99319756 C0,15.5033401 4.48305499,19.9863951 9.99319756,19.9863951 C15.5033401,19.9863951 19.9863951,15.5033401 19.9863951,9.99319756 C19.9863951,4.48305499 15.5033809,0 9.99319756,0 Z M9.99234216,19.1174338 C4.96183299,19.1174338 0.868961303,15.0245621 0.868961303,9.99319756 C0.868961303,7.63393075 1.77702648,5.48757637 3.25169043,3.86606925 L6.28529532,6.89967413 L7.39148676,13.5403666 L7.82598778,16.1472912 C7.8607332,16.3567006 8.04236253,16.5105092 8.25437882,16.5105092 L12.5992668,16.5105092 C12.8121792,16.5105092 12.9929124,16.3567006 13.0276578,16.1472912 L13.3856619,14.0009369 L16.1194705,16.7347454 C14.4979633,18.2093686 12.351609,19.1174338 9.99234216,19.1174338 Z M7.34195519,7.95718941 L12.419389,13.0346232 L8.18835031,13.0346232 L7.34195519,7.95718941 Z M16.7347047,16.1203666 L13.4039104,12.7895723 L6.99873727,6.38435845 L3.86692464,3.25258656 C5.48843177,1.77792261 7.63478615,0.869857434 9.99405295,0.869857434 C15.0245621,0.869002037 19.1174338,4.96187373 19.1174338,9.99323829 C19.1174338,12.3524644 18.2093686,14.4988595 16.7347047,16.1203666 Z" id="Shape"></path>
                </g>
            </g>
        </g>
    </g>
</svg>