<?xml version="1.0" encoding="UTF-8"?>
<svg width="20px" height="19px" viewBox="0 0 20 19" version="1.1" xmlns="http://www.w3.org/2000/svg" xmlns:xlink="http://www.w3.org/1999/xlink">
    <!-- Generator: sketchtool 46.2 (44496) - http://www.bohemiancoding.com/sketch -->
    <title>29E6E967-3A33-4F6A-8C6C-93959AF35716</title>
    <desc>Created with sketchtool.</desc>
    <defs></defs>
    <g id="Page-1" stroke="none" stroke-width="1" fill="none" fill-rule="evenodd">
        <g id="2-услуги-1440" transform="translate(-158.000000, -444.000000)" fill-rule="nonzero" fill="#E6E6E6">
            <g id="items" transform="translate(150.000000, 312.000000)">
                <path d="M27.8094747,134.351892 C28.1137822,133.484284 28.0568495,132.815544 27.6379268,132.34539 C27.1432272,131.947651 26.4391412,131.893612 25.5256688,132.182324 C24.6122964,132.471559 23.7940451,132.959568 23.0708649,133.646447 L20.7876088,135.81573 L11.2976431,133.66017 C11.1453894,133.614916 11.0026827,133.651053 10.8695732,133.768532 L9.04277841,135.503892 C8.93826018,135.603422 8.89532323,135.725412 8.91441742,135.870006 C8.94295875,136.014789 9.02388415,136.123104 9.15704368,136.195472 L16.4067403,139.977982 L12.7104637,143.489445 L9.94190514,142.771083 C9.92291092,142.761966 9.88497245,142.757408 9.82783981,142.757408 C9.69458031,142.757408 9.58526354,142.798008 9.49958957,142.879446 L8.12965594,144.194416 C8.03453485,144.302636 7.99179783,144.415699 8.00129495,144.533083 C8.02018921,144.677677 8.08202041,144.78167 8.18678857,144.845063 L11.7829956,147.407242 L14.4801259,150.823544 C14.5657998,150.923168 14.6800151,150.981623 14.8227217,151 L14.8512631,151 C14.9845226,151 15.0938393,150.9594 15.1795133,150.878152 L16.5493969,149.576858 C16.6730594,149.450119 16.7111478,149.310036 16.6636622,149.15642 L15.9072421,146.52629 L19.6034687,143.014589 L23.5852585,149.902181 C23.6422412,150.019708 23.7421109,150.091981 23.8849175,150.119143 C23.9133088,150.128212 23.9466487,150.132629 23.9848371,150.132629 C24.0987525,150.132629 24.189275,150.105467 24.2558047,150.051333 L26.0828495,148.749896 C26.2443004,148.623442 26.301433,148.474433 26.2540974,148.302677 L23.9707914,138.866773 L26.2684431,136.684099 C26.9913233,135.996935 27.5050172,135.219501 27.8094747,134.351892 Z" id="Shape"></path>
            </g>
        </g>
    </g>
</svg>