<?xml version="1.0" encoding="UTF-8"?>
<svg width="22px" height="12px" viewBox="0 0 22 12" version="1.1" xmlns="http://www.w3.org/2000/svg" xmlns:xlink="http://www.w3.org/1999/xlink">
    <!-- Generator: sketchtool 46.2 (44496) - http://www.bohemiancoding.com/sketch -->
    <title>BF46AFD8-A912-48AF-8748-319F5A496A96</title>
    <desc>Created with sketchtool.</desc>
    <defs></defs>
    <g id="Page-1" stroke="none" stroke-width="1" fill="none" fill-rule="evenodd">
        <g id="2-услуги-1440" transform="translate(-157.000000, -323.000000)" stroke="#E6E6E6" fill-rule="nonzero" fill="#E6E6E6">
            <g id="items" transform="translate(150.000000, 312.000000)">
                <path d="M12.5636405,22 C13.7826558,22 14.9286464,21.4799134 15.7905998,20.5355361 L18.0000168,18.1148445 L20.2094338,20.5355361 C21.0713872,21.4799134 22.2174114,22 23.4363931,22 C24.6554084,22 25.801399,21.4798766 26.6633525,20.5355361 C27.5253059,19.5911587 28,18.3355464 28,17 C28,15.6644168 27.5253059,14.4088413 26.6633525,13.4644639 C25.801399,12.5200866 24.6554084,12 23.4363931,12 C22.2174114,12 21.0713872,12.5200866 20.2094338,13.4644639 L18.0000168,15.8851923 L15.7905998,13.4645007 C14.9286464,12.5201234 13.7826222,12.0000368 12.5636405,12.0000368 C11.3446252,12.0000368 10.1986346,12.5201234 9.33668114,13.4645007 C8.47469412,14.4088413 8,15.6644536 8,17.0000368 C8,18.3355464 8.47469412,19.5911587 9.33664755,20.5355361 C10.1986346,21.4799134 11.3446252,22 12.5636405,22 Z M21.2269761,14.5792716 C21.8171192,13.9326964 22.6018155,13.576563 23.4363931,13.576563 C24.2710378,13.576563 25.0556671,13.9326596 25.6458101,14.5792716 C26.2359867,15.2258468 26.5610373,16.0855795 26.5610373,17 C26.5610373,17.9144205 26.2359867,18.7740796 25.6458101,19.4206916 C25.0556671,20.0672668 24.2710043,20.4234002 23.4363931,20.4234002 C22.601782,20.4234002 21.8171192,20.0672668 21.2269761,19.4206916 L19.0175256,17 L21.2269761,14.5792716 Z M10.3541899,14.5792716 C10.9443329,13.9326964 11.7289957,13.576563 12.5636069,13.576563 C13.398218,13.576563 14.1828808,13.9326596 14.7730239,14.5792716 L16.9824744,17 L14.7729903,19.4207284 C14.1828473,20.0673036 13.3981845,20.4234002 12.5635733,20.4234002 C11.7289622,20.4234002 10.9442658,20.0673036 10.3541228,19.4207284 C9.76397975,18.7741164 9.43896274,17.9144205 9.43896274,17.0000368 C9.43902992,16.0855795 9.76401334,15.2258836 10.3541899,14.5792716 Z" id="Shape"></path>
            </g>
        </g>
    </g>
</svg>