<?xml version="1.0" encoding="UTF-8"?>
<svg width="20px" height="20px" viewBox="0 0 20 20" version="1.1" xmlns="http://www.w3.org/2000/svg" xmlns:xlink="http://www.w3.org/1999/xlink">
    <!-- Generator: sketchtool 46.2 (44496) - http://www.bohemiancoding.com/sketch -->
    <title>0586DF94-F51B-4B99-8EE7-89E8ACC2B88E</title>
    <desc>Created with sketchtool.</desc>
    <defs></defs>
    <g id="Page-1" stroke="none" stroke-width="1" fill="none" fill-rule="evenodd">
        <g id="2-услуги-1440" transform="translate(-775.000000, -534.000000)" fill-rule="nonzero" fill="#E6E6E6">
            <g id="items" transform="translate(150.000000, 312.000000)">
                <path d="M644.347775,240.695628 L643.478206,240.695628 L643.478206,236.130402 C643.478206,235.051537 642.600552,234.173882 641.521686,234.173882 L640.8695,234.173882 L640.8695,229.608657 C640.8695,228.529792 639.991846,227.652137 638.912981,227.652137 L635.652128,227.652137 L635.652128,227.097178 C636.409587,226.8271 636.956461,226.109953 636.956461,225.260853 C636.956461,224.918627 636.866461,224.581284 636.695758,224.285347 C636.695758,224.285347 636.695329,224.285113 636.695329,224.284917 L635.564667,222.326093 C635.448339,222.124375 635.233066,222 634.99998,222 C634.766895,222 634.551583,222.124375 634.435294,222.326093 L633.304163,224.285347 C633.133461,224.581284 633.043461,224.918666 633.043461,225.260853 C633.043461,226.109953 633.590335,226.8271 634.347794,227.097178 L634.347794,227.652137 L631.086941,227.652137 C630.008076,227.652137 629.130422,228.529792 629.130422,229.608657 L629.130422,234.173882 L628.478274,234.173882 C627.399409,234.173882 626.521755,235.051537 626.521755,236.130402 C626.521755,236.289933 626.521755,239.327036 626.521755,240.695628 L625.652186,240.695628 C625.292148,240.695628 625,240.987541 625,241.347775 C625,241.708047 625.292148,241.999961 625.652186,241.999961 L644.347814,241.999961 C644.707852,241.999961 645,241.708047 645,241.347775 C644.999961,240.987541 644.707813,240.695628 644.347775,240.695628 Z M634.433966,224.937143 L634.99998,223.956754 L635.565995,224.937143 C635.6233,225.036478 635.652167,225.145384 635.652167,225.260892 C635.652167,225.620501 635.359589,225.913078 634.99998,225.913078 C634.640372,225.913078 634.347794,225.620501 634.347794,225.260892 C634.347794,225.145384 634.37713,225.036244 634.433966,224.937143 Z M630.434755,229.608696 C630.434755,229.249087 630.727333,228.95651 631.086941,228.95651 L638.91302,228.95651 C639.272628,228.95651 639.565206,229.249087 639.565206,229.608696 L639.565206,231.485958 C639.503409,231.423693 639.439933,231.357833 639.364816,231.276037 C638.986496,230.864592 638.468528,230.30096 637.579819,230.30096 C636.691579,230.30096 636.174002,230.864397 635.795682,231.275607 C635.434355,231.669005 635.258535,231.829043 634.971113,231.829043 C634.674786,231.829043 634.484122,231.638614 634.144865,231.273498 C633.763577,230.863147 633.241781,230.30096 632.362447,230.30096 C631.474206,230.30096 630.956629,230.864397 630.578739,231.275607 C630.52581,231.333224 630.481356,231.378927 630.434794,231.427638 L630.434794,229.608696 L630.434755,229.608696 Z M642.173873,236.926729 C641.649147,237.108135 641.292507,237.493603 641.013055,237.797391 C640.651727,238.190789 640.475907,238.350827 640.188486,238.350827 C639.901455,238.350827 639.726104,238.19075 639.364777,237.797782 C638.986457,237.386337 638.468489,236.822705 637.57978,236.822705 C636.69154,236.822705 636.173963,237.386142 635.795643,237.797352 C635.434316,238.19075 635.258496,238.350788 634.971074,238.350788 C634.674747,238.350788 634.484083,238.160359 634.144826,237.795243 C633.763538,237.384892 633.241742,236.822705 632.362407,236.822705 C631.474167,236.822705 630.95659,237.386142 630.57827,237.797352 C630.216943,238.19075 630.041162,238.350788 629.753702,238.350788 C629.443312,238.350788 629.183039,238.089656 628.791125,237.659579 C628.516517,237.358329 628.214134,237.030205 627.826049,236.812705 L627.826049,236.130441 C627.826049,235.770832 628.118627,235.478255 628.478235,235.478255 L641.521686,235.478255 C641.881295,235.478255 642.173873,235.770832 642.173873,236.130441 L642.173873,236.926729 Z" id="Shape"></path>
            </g>
        </g>
    </g>
</svg>