<?xml version="1.0" encoding="UTF-8"?>
<svg width="31px" height="11px" viewBox="0 0 31 11" version="1.1" xmlns="http://www.w3.org/2000/svg" xmlns:xlink="http://www.w3.org/1999/xlink">
    <!-- Generator: sketchtool 46.2 (44496) - http://www.bohemiancoding.com/sketch -->
    <title>0C04AF22-6BDC-49D2-B88A-2A05722A21E2</title>
    <desc>Created with sketchtool.</desc>
    <defs></defs>
    <g id="Page-1" stroke="none" stroke-width="1" fill="none" fill-rule="evenodd">
        <g id="2-услуги-1440" transform="translate(-150.000000, -571.000000)" fill="#E6E6E6">
            <g id="items" transform="translate(150.000000, 312.000000)">
                <path d="M4.45114305,269.328 L8.31188426,269.328 L12.0510273,259.328 L8.57028032,259.328 L6.38151366,266.059634 L4.19274699,259.328 L0.712,259.328 L4.45114305,269.328 Z M14.7696144,269.328 L17.8399676,269.328 L17.8399676,259.328 L14.7696144,259.328 L14.7696144,269.328 Z M21.652938,269.328 L21.652938,259.328 L27.0640556,259.328 C29.4352194,259.328 30.712,260.88722 30.712,262.761283 C30.712,264.620354 29.4352194,266.119604 27.0640556,266.119604 L24.7232912,266.119604 L24.7232912,269.328 L21.652938,269.328 Z M27.5960475,262.731298 C27.5960475,262.191568 27.1856537,261.846741 26.6688616,261.846741 L24.7232912,261.846741 L24.7232912,263.600864 L26.6688616,263.600864 C27.1856537,263.600864 27.5960475,263.256036 27.5960475,262.731298 Z" id="VIP"></path>
            </g>
        </g>
    </g>
</svg>