<?xml version="1.0" encoding="UTF-8"?>
<svg width="28px" height="40px" viewBox="0 0 28 40" version="1.1" xmlns="http://www.w3.org/2000/svg" xmlns:xlink="http://www.w3.org/1999/xlink">
    <!-- Generator: sketchtool 46.2 (44496) - http://www.bohemiancoding.com/sketch -->
    <title>25DE7B53-95D7-4684-8C9C-C26392D0BD8C</title>
    <desc>Created with sketchtool.</desc>
    <defs></defs>
    <g id="Page-1" stroke="none" stroke-width="1" fill="none" fill-rule="evenodd">
        <g id="6-контакты-1440" transform="translate(-1138.000000, -430.000000)" fill-rule="nonzero" fill="#FFFFFF">
            <path d="M1152,449 C1149.23858,449 1147,446.761424 1147,444 C1147,442.673918 1147.52678,441.402148 1148.46447,440.464466 C1149.40215,439.526784 1150.67392,439 1152,439 C1154.76142,439 1157,441.238576 1157,444 C1157,445.326082 1156.47322,446.597852 1155.53553,447.535534 C1154.59785,448.473216 1153.32608,449 1152,449 L1152,449 Z M1152,430 C1144.26801,430 1138,436.268014 1138,444 C1138,454.5 1152,470 1152,470 C1152,470 1166,454.5 1166,444 C1166,436.268014 1159.73199,430 1152,430 Z" id="Shape"></path>
        </g>
    </g>
</svg>