<?xml version="1.0" encoding="UTF-8"?>
<svg width="32px" height="22px" viewBox="0 0 32 22" version="1.1" xmlns="http://www.w3.org/2000/svg" xmlns:xlink="http://www.w3.org/1999/xlink">
    <!-- Generator: sketchtool 46.2 (44496) - http://www.bohemiancoding.com/sketch -->
    <title>5C66365F-CE97-407B-89FD-50AB0FE10FE6</title>
    <desc>Created with sketchtool.</desc>
    <defs></defs>
    <g id="Page-1" stroke="none" stroke-width="1" fill="none" fill-rule="evenodd">
        <g id="4-водители-1440" transform="translate(-1306.000000, -170.000000)" fill-rule="nonzero" fill="#E6E6E6">
            <path d="M1327.54843,170.330864 C1327.11248,169.889712 1326.38692,169.889712 1325.93573,170.330864 C1325.49978,170.757113 1325.49978,171.466534 1325.93573,171.891789 L1334.11305,179.887183 L1307.12899,179.887183 C1306.49997,179.888176 1306,180.377021 1306,180.992051 C1306,181.607082 1306.49997,182.111824 1307.12899,182.111824 L1334.11305,182.111824 L1325.93573,190.092313 C1325.49978,190.533466 1325.49978,191.24388 1325.93573,191.669136 C1326.38692,192.110288 1327.1135,192.110288 1327.54843,191.669136 L1337.66161,181.780959 C1338.1128,181.354711 1338.1128,180.645289 1337.66161,180.220034 L1327.54843,170.330864 Z" id="Shape"></path>
        </g>
    </g>
</svg>