<?xml version="1.0" encoding="UTF-8"?>
<svg width="32px" height="22px" viewBox="0 0 32 22" version="1.1" xmlns="http://www.w3.org/2000/svg" xmlns:xlink="http://www.w3.org/1999/xlink">
    <!-- Generator: sketchtool 46.2 (44496) - http://www.bohemiancoding.com/sketch -->
    <title>ED92CC1E-EF2F-4636-A1B8-CE270ADF0168</title>
    <desc>Created with sketchtool.</desc>
    <defs></defs>
    <g id="Page-1" stroke="none" stroke-width="1" fill="none" fill-rule="evenodd" opacity="0.300000012">
        <g id="3-тарифы-бизнес-1440" transform="translate(-1192.000000, -270.000000)" fill-rule="nonzero" fill="#E6E6E6">
            <g id="arrows" transform="translate(1192.000000, 270.000000)">
                <path d="M21.5484281,0.330864421 C21.1124802,-0.11028814 20.3869165,-0.11028814 19.9357256,0.330864421 C19.4997777,0.757113179 19.4997777,1.46653419 19.9357256,1.89178936 L28.1130518,9.88718273 L1.12899333,9.88718273 C0.499968244,9.88817632 0,10.377021 0,10.9920513 C0,11.6070816 0.499968244,12.1118237 1.12899333,12.1118237 L28.1130518,12.1118237 L19.9357256,20.0923133 C19.4997777,20.5334658 19.4997777,21.2438804 19.9357256,21.6691356 C20.3869165,22.1102881 21.1134963,22.1102881 21.5484281,21.6691356 L31.6616069,11.7809593 C32.1127977,11.3547105 32.1127977,10.6452895 31.6616069,10.2200343 L21.5484281,0.330864421 Z" id="&lt;" transform="translate(16.000000, 11.000000) scale(-1, 1) translate(-16.000000, -11.000000) "></path>
            </g>
        </g>
    </g>
</svg>