<?xml version="1.0" encoding="UTF-8"?>
<svg width="40px" height="40px" viewBox="0 0 40 40" version="1.1" xmlns="http://www.w3.org/2000/svg" xmlns:xlink="http://www.w3.org/1999/xlink">
    <!-- Generator: sketchtool 46.2 (44496) - http://www.bohemiancoding.com/sketch -->
    <title>559B0495-5A72-4EF6-BDD3-C28B1AAEBBD5</title>
    <desc>Created with sketchtool.</desc>
    <defs></defs>
    <g id="Page-1" stroke="none" stroke-width="1" fill="none" fill-rule="evenodd">
        <g id="7-заявка-1440" transform="translate(-1340.000000, -60.000000)" fill-rule="nonzero" fill="#E6E6E6">
            <path d="M1358.08641,80.0061366 L1340.38141,97.8355244 C1339.88953,98.3308551 1339.88953,99.1333286 1340.38141,99.6286593 C1340.62703,99.8766394 1340.94953,100 1341.27141,100 C1341.59391,100 1341.91578,99.8766394 1342.16141,99.6286593 L1359.99953,81.6652112 L1377.83766,99.6286593 C1378.08391,99.8766394 1378.40578,100 1378.72766,100 C1379.04953,100 1379.37203,99.8766394 1379.61766,99.6286593 C1380.10953,99.1333286 1380.10953,98.3308551 1379.61766,97.8355244 L1361.91328,80.0061366 L1379.62953,62.1641609 C1380.12141,61.6688302 1380.12141,60.8663567 1379.62953,60.371026 C1379.13766,59.8763247 1378.34078,59.8763247 1377.84953,60.371026 L1360.00016,78.3470619 L1342.14891,60.3716554 C1341.65703,59.8769541 1340.86078,59.8769541 1340.36891,60.3716554 C1339.87703,60.8669861 1339.87703,61.6694596 1340.36891,62.1647903 L1358.08641,80.0061366 Z" id="Shape"></path>
        </g>
    </g>
</svg>