<?xml version="1.0" encoding="UTF-8"?>
<svg width="126px" height="30px" viewBox="0 0 126 30" version="1.1" xmlns="http://www.w3.org/2000/svg" xmlns:xlink="http://www.w3.org/1999/xlink">
    <!-- Generator: sketchtool 46.2 (44496) - http://www.bohemiancoding.com/sketch -->
    <title>95122CD9-D24D-4572-9039-0144B4CF47DA</title>
    <desc>Created with sketchtool.</desc>
    <defs>
        <linearGradient x1="23.9284939%" y1="-38.4960938%" x2="50%" y2="100%" id="linearGradient-1">
            <stop stop-color="#787878" offset="0%"></stop>
            <stop stop-color="#4B4B4B" offset="100%"></stop>
        </linearGradient>
        <linearGradient x1="23.9284939%" y1="-38.4960938%" x2="50%" y2="100%" id="linearGradient-2">
            <stop stop-color="#FFFFFF" offset="0%"></stop>
            <stop stop-color="#CECECE" offset="100%"></stop>
        </linearGradient>
    </defs>
    <g id="Page-1" stroke="none" stroke-width="1" fill="none" fill-rule="evenodd">
        <g id="1-главная-1440" transform="translate(-60.000000, -54.000000)">
            <g id="logo" transform="translate(60.000000, 54.000000)">
                <path d="M50.7080206,8.22318841 L50.7080206,10.6985507 L43.8306754,10.6985507 L43.8306754,13.173913 L47.2793152,13.173913 C50.1099906,13.173913 51.684803,15.142029 51.684803,17.4753623 C51.684803,19.8086957 50.129925,21.7565217 47.2793152,21.7565217 L41,21.7565217 L41,8.22318841 L50.7080206,8.22318841 Z M43.8306754,15.6695652 L43.8306754,19.2608696 L46.9005629,19.2608696 C47.9969512,19.2608696 48.7943246,18.5507246 48.7943246,17.4753623 C48.7943246,16.3797101 47.9969512,15.6695652 46.9005629,15.6695652 L43.8306754,15.6695652 Z M52.8011257,15 C52.8011257,10.9217391 55.7314728,8 59.7382739,8 C63.7650094,8 66.6953565,10.9217391 66.6953565,15 C66.6953565,19.0782609 63.7650094,22 59.7382739,22 C55.7314728,22 52.8011257,19.0782609 52.8011257,15 Z M63.7849437,15 C63.7849437,12.4637681 62.190197,10.5565217 59.7382739,10.5565217 C57.2863508,10.5565217 55.7115385,12.4637681 55.7115385,15 C55.7115385,17.515942 57.2863508,19.4434783 59.7382739,19.4434783 C62.190197,19.4434783 63.7849437,17.515942 63.7849437,15 Z M68.6887899,21.7565217 L68.6887899,8.22318841 L74.9083021,8.22318841 C77.7987805,8.22318841 79.3735929,10.2115942 79.3735929,12.5855072 C79.3735929,14.9391304 77.7788462,16.9072464 74.9083021,16.9072464 L71.5194653,16.9072464 L71.5194653,21.7565217 L68.6887899,21.7565217 Z M76.4831144,12.5652174 C76.4831144,11.4492754 75.6458724,10.6985507 74.5295497,10.6985507 L71.5194653,10.6985507 L71.5194653,14.4318841 L74.5295497,14.4318841 C75.6458724,14.4318841 76.4831144,13.7014493 76.4831144,12.5652174 Z M84.1977017,21.7565217 L87.0483114,21.7565217 L87.0483114,10.7594203 L90.9155722,10.7594203 L90.9155722,8.22318841 L80.3105066,8.22318841 L80.3105066,10.7594203 L84.1977017,10.7594203 L84.1977017,21.7565217 Z M111.64728,11.3478261 C111.64728,9.54202899 112.962946,8 115.075985,8 C117.228893,8 118.524625,9.54202899 118.524625,11.3478261 C118.524625,13.1536232 117.228893,14.6956522 115.075985,14.6956522 C112.962946,14.6956522 111.64728,13.1536232 111.64728,11.3478261 Z M107.00258,21.7565217 L109.733583,21.7565217 L109.733583,8.22318841 L106.902908,8.22318841 L106.902908,16.9884058 L100.743199,8.22318841 L97.8327861,8.22318841 L97.8327861,21.7565217 L100.663462,21.7565217 L100.663462,12.6666667 L107.00258,21.7565217 Z M116.630863,11.3478261 C116.630863,10.2318841 116.052767,9.54202899 115.075985,9.54202899 C114.099203,9.54202899 113.541041,10.2318841 113.541041,11.3478261 C113.541041,12.4637681 114.099203,13.1942029 115.075985,13.1942029 C116.052767,13.1942029 116.630863,12.4637681 116.630863,11.3478261 Z M123.169325,21.7565217 L126,21.7565217 L126,8.22318841 L123.528143,8.22318841 L119.341932,12.5043478 L120.956614,14.2289855 L123.169325,11.9362319 L123.169325,21.7565217 Z" id="БОРТ-№1" fill="#FFFFFF"></path>
                <g id="Page-1">
                    <g id="Group-3" transform="translate(0.000000, 0.058428)" fill="url(#linearGradient-1)">
                        <path d="M16.738267,14.2365066 L10.284677,15.751048 C9.663667,15.8968559 9.157837,15.2431441 9.449557,14.6715721 L16.899987,0.0725764192 L8.007857,0.0725764192 C3.585257,0.0725764192 -1.3e-05,3.68554585 -1.3e-05,8.14218341 L-1.3e-05,16.1080349 C-1.3e-05,19.2210917 1.404247,22.1652838 3.816527,24.1099127 L9.368307,28.5856769 C9.954087,29.0580786 10.608247,29.399345 11.292697,29.611048 L17.592237,15.2764192 C17.842227,14.7075983 17.339517,14.0954148 16.738267,14.2365066" id="Fill-1"></path>
                    </g>
                    <path d="M16.631745,28.644131 L22.183525,24.1683668 C24.595805,22.223738 25.999935,19.2795459 25.999935,16.1664891 L25.999935,8.20063755 C25.999935,3.744 22.414665,0.131030568 17.992195,0.131030568 L16.899935,0.131030568 L9.449505,14.7300262 C9.157915,15.3014672 9.663615,15.95531 10.284755,15.8093712 L16.738215,14.2949607 C17.339465,14.153869 17.842305,14.7659214 17.592315,15.3348734 L11.292775,29.6695022 C13.088595,30.2248297 15.094495,29.8835633 16.631745,28.644131" id="Fill-4" fill="url(#linearGradient-2)"></path>
                </g>
            </g>
        </g>
    </g>
</svg>