<?xml version="1.0" encoding="UTF-8"?>
<svg width="30px" height="30px" viewBox="0 0 30 30" version="1.1" xmlns="http://www.w3.org/2000/svg" xmlns:xlink="http://www.w3.org/1999/xlink">
    <!-- Generator: sketchtool 46.2 (44496) - http://www.bohemiancoding.com/sketch -->
    <title>98B5CDA2-66FA-4FCD-BA3B-3F353C752D00</title>
    <desc>Created with sketchtool.</desc>
    <defs></defs>
    <g id="Page-1" stroke="none" stroke-width="1" fill="none" fill-rule="evenodd">
        <g id="1-главная-1440" transform="translate(-1112.000000, -51.000000)" fill-rule="nonzero" fill="#E6E6E6">
            <g id="phone" transform="translate(1112.000000, 50.000000)">
                <path d="M15.0000618,1 C6.71634962,1 0,7.71634962 0,16.0000618 C0,24.2836504 6.71634962,31.0001237 15.0000618,31.0001237 C23.283774,31.0001237 30,24.2835885 30,16.0000618 C30.0000618,7.71634962 23.283774,1 15.0000618,1 Z M22.9210857,22.8867501 L21.7200594,24.0880237 C21.5056367,24.3021372 20.8777643,24.4357495 20.857608,24.4357495 C17.0580986,24.4688898 13.3997444,22.9764638 10.7117949,20.2882669 C8.01648771,17.591414 6.52233054,13.920014 6.56245749,10.1077059 C6.56245749,10.1059747 6.69996496,9.49609447 6.9142021,9.28389769 L8.11516663,8.08274768 C8.55464644,7.64122751 9.39885823,7.44170565 9.99025164,7.63955813 L10.2428845,7.72383092 C10.8325467,7.92149791 11.4516395,8.57348365 11.6145586,9.1741514 L12.2186888,11.3914594 C12.381608,11.9938583 12.1618681,12.8508687 11.7225119,13.2903485 L10.9205911,14.092393 C11.7079203,17.0071309 13.9949094,19.2945529 16.910142,20.0837988 L17.7117537,19.2815688 C18.1532738,18.8400486 19.0099751,18.6204942 19.6110756,18.7831661 L21.8280744,19.3894602 C22.4288659,19.5545434 23.0807279,20.1697409 23.2783331,20.7592177 L23.3626059,21.0154984 C23.5584798,21.6052225 23.3605037,22.4492488 22.9210857,22.8867501 Z" id="Shape"></path>
            </g>
        </g>
    </g>
</svg>