<?xml version="1.0" encoding="UTF-8"?>
<svg width="30px" height="30px" viewBox="0 0 30 30" version="1.1" xmlns="http://www.w3.org/2000/svg" xmlns:xlink="http://www.w3.org/1999/xlink">
    <!-- Generator: sketchtool 46.2 (44496) - http://www.bohemiancoding.com/sketch -->
    <title>61E555A2-17D7-4B24-AE72-4F8D8A95F502</title>
    <desc>Created with sketchtool.</desc>
    <defs></defs>
    <g id="Page-1" stroke="none" stroke-width="1" fill="none" fill-rule="evenodd">
        <g id="1-главная-320" transform="translate(-52.000000, -523.000000)" fill-rule="nonzero" fill="#292A2E">
            <g id="звонок" transform="translate(0.000000, 508.000000)">
                <path d="M67.0000618,15 C58.7163496,15 52,21.7163496 52,30.0000618 C52,38.2836504 58.7163496,45.0001237 67.0000618,45.0001237 C75.283774,45.0001237 82,38.2835885 82,30.0000618 C82.0000618,21.7163496 75.283774,15 67.0000618,15 Z M74.9210857,36.8867501 L73.7200594,38.0880237 C73.5056367,38.3021372 72.8777643,38.4357495 72.857608,38.4357495 C69.0580986,38.4688898 65.3997444,36.9764638 62.7117949,34.2882669 C60.0164877,31.591414 58.5223305,27.920014 58.5624575,24.1077059 C58.5624575,24.1059747 58.699965,23.4960945 58.9142021,23.2838977 L60.1151666,22.0827477 C60.5546464,21.6412275 61.3988582,21.4417057 61.9902516,21.6395581 L62.2428845,21.7238309 C62.8325467,21.9214979 63.4516395,22.5734836 63.6145586,23.1741514 L64.2186888,25.3914594 C64.381608,25.9938583 64.1618681,26.8508687 63.7225119,27.2903485 L62.9205911,28.092393 C63.7079203,31.0071309 65.9949094,33.2945529 68.910142,34.0837988 L69.7117537,33.2815688 C70.1532738,32.8400486 71.0099751,32.6204942 71.6110756,32.7831661 L73.8280744,33.3894602 C74.4288659,33.5545434 75.0807279,34.1697409 75.2783331,34.7592177 L75.3626059,35.0154984 C75.5584798,35.6052225 75.3605037,36.4492488 74.9210857,36.8867501 Z" id="Shape"></path>
            </g>
        </g>
    </g>
</svg>