<?xml version="1.0" encoding="UTF-8"?>
<svg width="12px" height="16px" viewBox="0 0 12 16" version="1.1" xmlns="http://www.w3.org/2000/svg" xmlns:xlink="http://www.w3.org/1999/xlink">
    <!-- Generator: sketchtool 46.2 (44496) - http://www.bohemiancoding.com/sketch -->
    <title>261B9B33-A178-40B3-8815-3E6D6F98ECDC</title>
    <desc>Created with sketchtool.</desc>
    <defs></defs>
    <g id="Page-1" stroke="none" stroke-width="1" fill="none" fill-rule="evenodd">
        <g id="3-тарифы-бизнес-1440" transform="translate(-884.000000, -312.000000)" fill-rule="nonzero" fill="#E6E6E6">
            <g id="infa" transform="translate(882.000000, 310.000000)">
                <path d="M8.00018033,9.82505143 C6.24573215,9.82505143 4.82341007,8.07337143 4.82341007,5.91254857 C4.82341007,3.75168 5.29046946,2 8.00018033,2 C10.7098912,2 11.1768604,3.75168 11.1768604,5.91254857 C11.1768604,8.07337143 9.75453835,9.82505143 8.00018033,9.82505143 Z M13.9932826,15.6410057 C13.9970245,15.8817829 13.9990082,15.9234286 14,15.9019429 C13.9998648,15.96576 13.9997746,16.0595657 13.9997746,16.1944686 C13.9997746,16.1944686 13.1164192,18 8.00013525,18 C2.88376112,18 2.00049591,16.1944686 2.00049591,16.1944686 C2.00049591,15.9845029 2.00022541,15.8640914 2,15.7989943 C2.00099182,15.8337371 2.00356155,15.8180114 2.00910676,15.51872 C2.07673119,11.8534857 2.59103751,10.7968 6.26056444,10.1252571 C6.26056444,10.1252571 6.78289553,10.8000457 8.00013525,10.8000457 C9.21737497,10.8000457 9.73961589,10.1252571 9.73961589,10.1252571 C13.4496273,10.8042057 13.9344494,11.8768 13.9932826,15.6410057 Z" id="Combined-Shape"></path>
            </g>
        </g>
    </g>
</svg>