<?xml version="1.0" encoding="UTF-8"?>
<svg width="16px" height="14px" viewBox="0 0 16 14" version="1.1" xmlns="http://www.w3.org/2000/svg" xmlns:xlink="http://www.w3.org/1999/xlink">
    <!-- Generator: sketchtool 46.2 (44496) - http://www.bohemiancoding.com/sketch -->
    <title>144BAF9D-1A8B-4FF0-8F77-08BB5830C980</title>
    <desc>Created with sketchtool.</desc>
    <defs></defs>
    <g id="Page-1" stroke="none" stroke-width="1" fill="none" fill-rule="evenodd">
        <g id="3-тарифы-бизнес-1440" transform="translate(-882.000000, -349.000000)" fill-rule="nonzero" fill="#E6E6E6">
            <g id="infa" transform="translate(882.000000, 310.000000)">
                <g id="suitcase-with-white-details" transform="translate(0.000000, 39.000000)">
                    <path d="M0.5888125,2.94254545 C0.19625,3.34227727 0,3.82072727 0,4.3778 L0,11.9357955 C0,12.4930909 0.19625,12.9715409 0.5888125,13.3711455 C0.98140625,13.7709409 1.4513125,13.9706636 1.99853125,13.9706636 L2.5695,13.9706636 L2.5695,2.3429 L1.99853125,2.3429 C1.4511875,2.3429 0.9813125,2.54281364 0.5888125,2.94254545 Z" id="Shape"></path>
                    <path d="M11.4201875,0.889477273 C11.4201875,0.647213636 11.3369687,0.44135 11.170375,0.271759091 C11.0039687,0.102168182 10.801625,0.0174363636 10.5637812,0.0174363636 L5.42465625,0.0174363636 C5.18678125,0.0174363636 4.9845625,0.102168182 4.81796875,0.271759091 C4.65140625,0.441254545 4.56815625,0.647181818 4.56815625,0.889477273 L4.56815625,2.3429 L3.426125,2.3429 L3.426125,13.9706636 L12.5623437,13.9706636 L12.5623437,2.3429 L11.4201875,2.3429 L11.4201875,0.889477273 Z M10.27825,2.3429 L5.71015625,2.3429 L5.71015625,1.18016818 L10.27825,1.18016818 L10.27825,2.3429 Z" id="Shape"></path>
                    <path d="M15.3995313,2.94254545 C15.0069375,2.54284545 14.537,2.3429 13.9898125,2.3429 L13.41875,2.3429 L13.41875,13.9706636 L13.9898125,13.9706636 C14.5370313,13.9706636 15.0069375,13.7709727 15.3995313,13.3711455 C15.792,12.9715091 15.9883438,12.4930591 15.9883438,11.9357955 L15.9883438,4.3778 C15.9883125,3.82072727 15.7919688,3.34227727 15.3995313,2.94254545 Z" id="Shape"></path>
                </g>
            </g>
        </g>
    </g>
</svg>