<?xml version="1.0" standalone="no"?>
<!DOCTYPE svg PUBLIC "-//W3C//DTD SVG 20010904//EN"
 "http://www.w3.org/TR/2001/REC-SVG-20010904/DTD/svg10.dtd">
<svg version="1.0" xmlns="http://www.w3.org/2000/svg"
 width="652.000000pt" height="652.000000pt" viewBox="0 0 652.000000 652.000000"
 preserveAspectRatio="xMidYMid meet">
<metadata>
Created by potrace 1.11, written by Peter Selinger 2001-2013
</metadata>
<g transform="translate(0.000000,652.000000) scale(0.100000,-0.100000)"
fill="#000000" stroke="none">
<path d="M2015 6410 c-27 -4 -72 -10 -100 -14 -149 -20 -417 -113 -526 -181
-21 -14 -41 -25 -45 -25 -7 0 -180 -118 -213 -145 -13 -11 -39 -34 -58 -52
-19 -17 -38 -33 -41 -35 -8 -3 -112 -116 -152 -163 -86 -103 -211 -314 -257
-435 -31 -81 -36 -94 -38 -100 -1 -3 -5 -12 -8 -20 -24 -57 -59 -231 -75 -370
-9 -75 -7 -1978 2 -2060 12 -112 15 -130 20 -147 3 -10 8 -34 10 -53 3 -19 10
-55 16 -80 6 -25 13 -54 15 -65 3 -11 20 -67 40 -125 19 -58 37 -112 39 -120
2 -8 11 -28 20 -45 8 -16 30 -64 49 -105 18 -41 52 -106 75 -144 23 -37 42
-71 42 -75 0 -5 9 -16 20 -26 11 -10 20 -24 20 -32 0 -7 5 -13 10 -13 6 0 10
-5 10 -11 0 -15 147 -193 227 -274 83 -85 125 -122 223 -200 41 -33 77 -62 80
-65 5 -5 76 -63 124 -100 10 -8 33 -27 50 -41 17 -14 101 -82 186 -150 85 -69
164 -132 175 -141 11 -9 58 -47 105 -84 47 -38 87 -70 90 -74 3 -3 21 -17 42
-32 20 -15 42 -33 50 -40 7 -8 33 -29 58 -48 25 -19 54 -43 65 -53 11 -10 45
-37 75 -60 30 -22 60 -46 65 -52 17 -19 139 -95 152 -95 7 0 13 -4 13 -9 0 -5
23 -17 50 -27 28 -10 50 -21 50 -24 0 -4 6 -7 13 -8 6 0 39 -11 72 -22 61 -22
154 -45 235 -57 59 -10 284 -9 335 1 22 4 49 9 60 11 132 20 326 100 451 185
27 19 51 37 52 42 2 4 10 8 17 8 7 0 15 4 17 9 1 5 50 46 108 92 58 46 112 89
120 96 8 7 58 47 110 89 108 86 152 122 195 157 26 21 240 194 285 230 54 43
277 223 287 232 7 5 18 15 25 20 172 131 368 342 495 530 52 77 151 262 182
340 13 33 30 74 37 90 34 79 98 315 109 406 3 24 7 51 10 59 2 8 8 44 12 80 8
71 8 2063 1 2120 -4 28 -18 105 -23 130 0 3 -4 23 -9 45 -19 101 -105 343
-134 378 -8 9 -12 17 -8 17 4 0 -1 12 -11 28 -10 15 -29 48 -43 75 -13 26 -28
47 -32 47 -5 0 -8 5 -8 11 0 17 -132 187 -202 259 -172 179 -407 332 -642 419
-74 27 -231 68 -294 77 -26 3 -56 9 -67 12 -29 9 -2451 10 -2510 2z"/>
</g>
</svg>
